# xmcd
#
# Track frame offsets:
#	150
#	22953
#	45689
#	68667
#	89759
#	109118
#	125539
#	149569
#	172744
#	196445
#	216287
#	237664
#
# Disc length: 3336 seconds
#
# Revision: 0
# Processed by: cddbd v1.5.2PL0 Copyright (c) Steve Scherf et al.
# Submitted via: EasyCDDAExtractor 11.1.0.1
#
DISCID=b10d060c
DTITLE=Derek Trucks Band - Already Free
DYEAR=2009
DGENRE=Blues
TTITLE0=01 Down In The Flood
TTITLE1=02 Something To Make You Happy
TTITLE2=03 Maybe This Time
TTITLE3=04 Sweet Inspiration
TTITLE4=05 Don't Miss Me
TTITLE5=06 Get What You Deserve
TTITLE6=07 Our Love
TTITLE7=08 Down Don't Bother
TTITLE8=09 Days Is Almost Gone
TTITLE9=10 Back Where I Started
TTITLE10=11 I Know
TTITLE11=12 Already Free
EXTD=
EXTT0=
EXTT1=
EXTT2=
EXTT3=
EXTT4=
EXTT5=
EXTT6=
EXTT7=
EXTT8=
EXTT9=
EXTT10=
EXTT11=
PLAYORDER=
